<?xml version="1.0" encoding="UTF-8"?>
<svg width="454px" height="106px" viewBox="0 0 454 106" version="1.1" xmlns="http://www.w3.org/2000/svg" xmlns:xlink="http://www.w3.org/1999/xlink">
    <!-- Generator: Sketch 52.2 (67145) - http://www.bohemiancoding.com/sketch -->
    <title>Group 58</title>
    <desc>Created with Sketch.</desc>
    <g id="Symbols" stroke="none" stroke-width="1" fill="none" fill-rule="evenodd">
        <g id="NautyBrand-/-Logo-/-Blue" transform="translate(0.000000, -36.000000)">
            <g id="Group-58" transform="translate(0.000000, 36.000000)">
                <g id="Group" transform="translate(105.000000, 31.000000)">
                    <path d="M244.188653,25.434361 C244.188653,23.9147512 244.509992,23.5960195 246.024569,23.5960195 L247.859414,23.5960195 C256.719799,23.5960195 259.434042,20.235922 259.434042,14.0769951 C259.434042,7.4372878 256.563414,4.16089756 247.379548,4.16089756 C243.38959,4.16089756 239.558159,4.71787317 235.964519,5.83933659 C234.608469,6.2385561 234.05041,5.83933659 234.05041,4.31972683 L234.05041,3.51914146 C234.05041,2.16050732 234.369607,1.92011707 235.964519,1.36099512 C238.839431,0.480995122 242.673004,0.000214634146 247.379548,0.000214634146 C259.19518,0.000214634146 263.908151,4.79836098 263.908151,13.9986537 C263.908151,20.1575805 261.433841,23.6754341 256.323481,25.6747512 C261.513105,26.9539707 264.704,31.4333854 264.704,38.2329951 C264.704,48.3089951 258.95846,53.3486049 247.379548,53.3486049 C242.99113,53.3486049 238.921908,52.8678244 235.086192,51.9073366 C233.490209,51.5102634 233.174226,51.2698732 233.174226,49.7502634 L233.174226,49.1117268 C233.174226,47.5910439 233.809406,47.1091902 235.086192,47.5105561 C238.4399,48.6309463 242.511264,49.1889951 247.379548,49.1889951 C256.961874,49.1889951 260.234176,45.6700683 260.234176,38.2329951 C260.234176,31.1146537 256.083548,27.5935805 247.859414,27.5935805 L246.024569,27.5935805 C244.509992,27.5935805 244.188653,27.2748488 244.188653,25.7541659 L244.188653,25.434361 Z M276.838186,27.4350732 L276.838186,33.3546829 C276.838186,38.6314634 277.717583,42.5517561 279.555642,45.1906829 C281.389416,47.749122 284.821315,49.0304878 289.932746,49.0304878 C298.314336,49.0304878 301.585567,45.5104878 301.585567,37.1934146 C301.585567,28.8752683 298.154738,25.5956585 289.292211,25.5956585 C284.583525,25.5956585 280.432897,26.2352683 276.838186,27.4350732 Z M306.057533,36.9519512 C306.057533,47.9090244 300.788646,53.1890244 289.612479,53.1890244 C277.159525,53.1890244 272.447625,46.4709756 272.447625,33.5929268 L272.447625,18.3174146 C272.447625,5.59926829 277.63832,0.000536585366 290.967458,0.000536585366 C294.801031,0.000536585366 298.471792,0.560731707 301.986169,1.76053659 C303.500746,2.32180488 303.901349,2.72102439 303.901349,4.07965854 L303.901349,4.71819512 C303.901349,6.23887805 303.262956,6.798 302.067575,6.23887805 C298.95273,4.87917073 295.120228,4.16121951 290.57114,4.16121951 C285.383659,4.16121951 281.788947,5.27946341 279.793433,7.43760976 C277.796847,9.59897561 276.838186,13.1962439 276.838186,18.156439 L276.838186,23.3559512 C280.830286,22.1550732 285.06232,21.5959512 289.612479,21.5959512 C301.026437,21.5959512 306.057533,26.3951707 306.057533,36.9519512 Z M343.975203,19.2752195 C343.975203,8.3964878 340.062367,4.16068293 330.803521,4.16068293 C321.622869,4.16068293 317.629697,8.3964878 317.629697,19.2752195 L317.629697,34.2330732 C317.629697,45.1107317 321.541463,49.1887805 330.803521,49.1887805 C340.062367,49.1887805 343.975203,45.1107317 343.975203,34.2330732 L343.975203,19.2752195 Z M313.08168,34.2330732 L313.08168,19.2752195 C313.08168,5.83912195 318.270233,3.55271368e-14 330.803521,3.55271368e-14 C343.498551,3.55271368e-14 348.525362,5.83912195 348.525362,19.2752195 L348.525362,34.2330732 C348.525362,47.5897561 343.498551,53.3483902 330.803521,53.3483902 C318.348425,53.3483902 313.08168,47.4287805 313.08168,34.2330732 Z" id="Combined-Shape" fill="#3DBBD5"></path>
                    <path d="M26.971046,25.0078829 C26.971046,23.1942244 26.4633305,21.8624195 25.4414728,21.0124683 C24.4164017,20.1657366 23.0292887,19.7396878 21.281205,19.7396878 C20.1104603,19.7396878 18.9611381,19.8877854 17.8203849,20.1764683 C16.6860586,20.4694439 15.7016904,20.9115902 14.8844184,21.4964683 L14.8844184,51.942322 C14.3060084,52.1193951 13.3859079,52.2911024 12.1305439,52.4671024 C10.8719665,52.6420293 9.57268619,52.7278829 8.23056067,52.7278829 C6.94734728,52.7278829 5.79266946,52.6420293 4.7740251,52.4671024 C3.75109623,52.2911024 2.89097908,51.942322 2.18938912,51.4175415 C1.49101255,50.8884683 0.946878661,50.1705171 0.571983264,49.2658341 C0.190661088,48.3590049 4.05009359e-13,47.1752976 4.05009359e-13,45.713639 L4.05009359e-13,19.3919805 C4.05009359e-13,17.8101268 0.333121339,16.5233951 1.00793305,15.529639 C1.67846025,14.5369561 2.59856067,13.6290537 3.76823431,12.8123707 C5.74982427,11.4054439 8.24769874,10.2657366 11.2543598,9.38680976 C14.2578075,8.51002927 17.606159,8.0689561 21.281205,8.0689561 C27.8750795,8.0689561 32.9586611,9.51988293 36.5190962,12.4152976 C40.0795314,15.3107122 41.8640335,19.3351024 41.8640335,24.4798829 L41.8640335,51.942322 C41.2781255,52.1193951 40.356954,52.2911024 39.1048033,52.4671024 C37.8419414,52.6420293 36.5469456,52.7278829 35.2016067,52.7278829 C33.9183933,52.7278829 32.7690711,52.6420293 31.7450711,52.4671024 C30.7221423,52.2911024 29.8652385,51.942322 29.159364,51.4175415 C28.4620586,50.8884683 27.9232803,50.1705171 27.5430293,49.2658341 C27.1617071,48.3590049 26.971046,47.1752976 26.971046,45.713639 L26.971046,25.0078829 Z M69.2712435,43.1312683 C70.4023565,43.1312683 71.6512937,43.0196585 73.0201975,42.7878537 C74.3880301,42.5517561 75.40239,42.2330244 76.0739883,41.8338049 L76.0739883,33.8107805 L68.8727833,34.4149756 C67.0004485,34.5512683 65.4655197,34.9504878 64.2701389,35.6169268 C63.065118,36.2887317 62.4684987,37.2867805 62.4684987,38.6271707 C62.4684987,39.9643415 62.9847833,41.0439512 64.0173523,41.878878 C65.0488502,42.7180976 66.8033607,43.1312683 69.2712435,43.1312683 Z M68.5728669,8.06863415 C71.7209172,8.06863415 74.6001138,8.39595122 77.1965322,9.03770732 C79.7929506,9.68160976 82.0144736,10.6581951 83.8536033,11.977122 C85.6905908,13.2939024 87.1066243,14.9573171 88.0974192,16.974878 C89.0882142,18.9935122 89.5873607,21.3770244 89.5873607,24.1264878 L89.5873607,43.7826829 C89.5873607,45.304439 89.1653356,46.5482439 88.3191431,47.5087317 C87.4708084,48.4778049 86.4628753,49.3127317 85.2964151,50.0113659 C81.4992603,52.2907805 76.1586075,53.4369268 69.2712435,53.4369268 C66.1778209,53.4369268 63.3864569,53.142878 60.9035782,52.5547805 C58.4228418,51.9741951 56.2955782,51.093122 54.5132184,49.9255122 C52.7330008,48.7568293 51.3640971,47.2619024 50.3968669,45.4525366 C49.4371347,43.6410244 48.9540552,41.5311707 48.9540552,39.1347805 C48.9540552,35.0975122 50.1505071,31.9949756 52.5455531,29.8293171 C54.9363146,27.6711707 58.6456368,26.3200488 63.6638795,25.7941951 L75.1388921,24.567561 L75.1388921,23.951561 C75.1388921,22.2591707 74.3944569,21.0432683 72.9023732,20.3113659 C71.4145741,19.5805366 69.2712435,19.2156585 66.4680971,19.2156585 C64.2508586,19.2156585 62.0893188,19.4463902 59.9877623,19.9142927 C57.8829925,20.3843415 55.988164,20.9735122 54.2947079,21.67 C53.5363481,21.1462927 52.8947414,20.3446341 52.3720301,19.2607317 C51.8450343,18.1746829 51.5772519,17.0510732 51.5772519,15.8791707 C51.5772519,14.3606341 51.9435782,13.1458049 52.6730176,12.2389756 C53.403528,11.3342927 54.5292854,10.5594634 56.046005,9.91234146 C57.7405322,9.26843902 59.7392603,8.8037561 62.0464736,8.50970732 C64.353687,8.21995122 66.5259381,8.06863415 68.5728669,8.06863415 Z M98.6948552,10.0002341 C99.2796921,9.82423415 100.198721,9.65038049 101.450872,9.47438049 C102.707307,9.29945366 104.005516,9.21252683 105.354069,9.21252683 C106.637282,9.21252683 107.786604,9.29945366 108.809533,9.47438049 C109.832462,9.65038049 110.69365,10.0002341 111.394169,10.527161 C112.093617,11.055161 112.632395,11.7698927 113.012646,12.676722 C113.39611,13.5814049 113.583558,14.7694049 113.583558,16.2321366 L113.583558,35.0974049 C113.583558,37.4980878 114.161968,39.2065756 115.336997,40.2303805 C116.501315,41.252039 118.192629,41.7650146 120.413081,41.7650146 C121.755207,41.7650146 122.850972,41.6448195 123.696094,41.4140878 C124.544428,41.1812098 125.202102,40.9461854 125.671257,40.7133073 L125.671257,10.0002341 C126.250738,9.82423415 127.168696,9.65038049 128.428345,9.47438049 C129.68478,9.29945366 130.985131,9.21252683 132.324044,9.21252683 C133.608328,9.21252683 134.763006,9.29945366 135.78165,9.47438049 C136.803508,9.65038049 137.66791,10.0002341 138.365215,10.527161 C139.066805,11.055161 139.607726,11.7698927 139.984763,12.676722 C140.363943,13.5814049 140.553533,14.7694049 140.553533,16.2321366 L140.553533,42.9036488 C140.553533,45.8334049 139.331374,48.0248195 136.876345,49.4875512 C134.8337,50.7742829 132.395809,51.7519415 129.5616,52.4269659 C126.732746,53.094478 123.656462,53.4368195 120.324177,53.4368195 C117.171843,53.4368195 114.265868,53.0837463 111.610537,52.3797463 C108.953064,51.6811122 106.66406,50.5993561 104.738169,49.1334049 C102.811207,47.676039 101.32555,45.7851122 100.270487,43.4724293 C99.221851,41.164039 98.6948552,38.3716488 98.6948552,35.0974049 L98.6948552,10.0002341 Z M164.552623,37.3797171 C164.552623,38.8971805 165.031418,39.9810829 165.995434,40.6239122 C166.959451,41.2678146 168.317644,41.5897659 170.067869,41.5897659 C170.944054,41.5897659 171.848087,41.5189366 172.783183,41.3676195 C173.716137,41.225961 174.535551,41.0327902 175.232857,40.7999122 C175.756639,41.4427415 176.208656,42.1617659 176.588907,42.9473268 C176.970229,43.7382537 177.159819,44.6880098 177.159819,45.801961 C177.159819,48.0244976 176.327551,49.8360098 174.663016,51.2397171 C173.001694,52.6423512 170.067869,53.3484976 165.863685,53.3484976 C160.725476,53.3484976 156.771936,52.1723024 153.996639,49.8360098 C151.2192,47.4975707 149.837443,43.6953268 149.837443,38.4282049 L149.837443,0.879034146 C150.477978,0.703034146 151.400221,0.512009756 152.596673,0.304887805 C153.790982,0.0999121951 155.064556,0.000107317073 156.407752,0.000107317073 C158.976321,0.000107317073 160.976121,0.452985366 162.402865,1.35981463 C163.833895,2.26771707 164.552623,4.18332683 164.552623,7.10771707 L164.552623,12.7246927 L176.023351,12.7246927 C176.375752,13.3685951 176.707803,14.1702537 177.029141,15.1318146 C177.351551,16.1008878 177.51115,17.1665463 177.51115,18.3373756 C177.51115,20.3839122 177.056991,21.8627415 176.154028,22.7684976 C175.249995,23.6742537 174.036405,24.1260585 172.520756,24.1260585 L164.552623,24.1260585 L164.552623,37.3797171 Z M191.347575,41.1536293 C190.704897,39.6908976 190.016161,38.0510927 189.28565,36.2352878 C188.557282,34.4237756 187.798922,32.3493366 187.0095,30.0055317 C186.224362,27.6713854 185.402805,24.991678 184.559826,21.980361 C183.71042,18.9658244 182.822454,15.5016293 181.887357,11.5802634 C182.704629,10.7625073 183.798253,10.0488488 185.169299,9.43070244 C186.544629,8.81577561 188.049567,8.50992195 189.680897,8.50992195 C191.725684,8.50992195 193.41914,8.93489756 194.762336,9.78484878 C196.104462,10.6326537 197.09847,12.2241659 197.737935,14.5626049 L204.65529,38.693922 L205.007692,38.693922 C205.709282,36.7021171 206.392663,34.5428976 207.065332,32.1990927 C207.738002,29.8628 208.393533,27.4481659 209.036211,24.9605561 C209.676746,22.4740195 210.278721,19.9907024 210.832495,17.5041659 C211.387341,15.0197756 211.868278,12.5740195 212.275307,10.1776293 C214.375792,9.07011707 216.683006,8.50992195 219.194805,8.50992195 C221.237449,8.50992195 222.929834,8.95099512 224.273031,9.8245561 C225.614085,10.7067024 226.288897,12.2241659 226.288897,14.3898244 C226.288897,15.965239 226.082169,17.7960683 225.679424,19.8758732 C225.264897,21.949239 224.725048,24.1567512 224.055592,26.4973366 C223.385064,28.8368488 222.5935,31.2536293 221.687324,33.7358732 C220.784362,36.2224098 219.839625,38.6649463 218.841332,41.0613366 C217.849466,43.4609463 216.826537,45.7307024 215.781115,47.8620195 C214.726052,49.9965561 213.707408,51.9110927 212.710186,53.6109951 C211.078855,56.4731415 209.564278,58.8148 208.160027,60.6263122 C206.757918,62.4378244 205.415792,63.8597756 204.131508,64.8857268 C202.846152,65.9073854 201.560797,66.6103122 200.278654,66.9912878 C198.99437,67.3722634 197.652244,67.5622146 196.249064,67.5622146 C193.799391,67.5622146 191.811374,66.829239 190.294654,65.3665073 C188.779006,63.9048488 187.874972,62.0010439 187.579341,59.6647512 C189.448462,58.2030927 191.316512,56.5740195 193.188847,54.7957756 C195.051541,53.0068 196.749282,51.1802634 198.261717,49.3129463 C197.270922,49.0188976 196.20729,48.3309951 195.067608,47.2470927 C193.928997,46.1664098 192.6897,44.1327512 191.347575,41.1536293 Z" id="Combined-Shape" fill="#112D68"></path>
                </g>
                <path d="M39.4996802,102.551966 C59.4007951,102.551966 75.5913592,86.1780103 75.5913592,66.0513256 C75.5913592,64.4198169 74.2788182,63.0917094 72.6656465,63.0917094 C71.0518351,63.0917094 69.7392941,64.4198169 69.7392941,66.0513256 C69.7392941,82.9156398 56.173812,96.6353212 39.4996802,96.6353212 C22.826188,96.6353212 9.26134551,82.9156398 9.26134551,66.0513256 C9.26134551,64.4198169 7.94816488,63.0917094 6.33499316,63.0917094 C4.7211818,63.0917094 3.40864081,64.4198169 3.40864081,66.0513256 C3.40864081,86.1780103 19.5992049,102.551966 39.4996802,102.551966 Z M72.6656465,59.6436755 C76.1587197,59.6436755 79,62.5185465 79,66.0513256 C79,88.0786338 61.280057,106 39.4996802,106 C17.7193034,106 -1.77635684e-13,88.0786338 -1.77635684e-13,66.0513256 C-1.77635684e-13,62.5185465 2.84128025,59.6436755 6.33499316,59.6436755 C9.82806643,59.6436755 12.6699863,62.5185465 12.6699863,66.0513256 C12.6699863,81.0137224 24.7054499,93.1866404 39.4996802,93.1866404 C54.2939105,93.1866404 66.3306533,81.0137224 66.3306533,66.0513256 C66.3306533,62.5185465 69.1725732,59.6436755 72.6656465,59.6436755 Z M39.4943712,21.2029499 C42.2128406,21.2029499 44.4240756,18.9665797 44.4240756,16.2165625 C44.4240756,13.4678391 42.2128406,11.2314689 39.4943712,11.2314689 C36.7759018,11.2314689 34.5653064,13.4678391 34.5653064,16.2165625 C34.5653064,18.9665797 36.7759018,21.2029499 39.4943712,21.2029499 Z M47.8327164,16.2165625 C47.8327164,20.8672033 44.0921025,24.6509838 39.4943712,24.6509838 C34.8972795,24.6509838 31.1566656,20.8672033 31.1566656,16.2165625 C31.1566656,11.5665686 34.8972795,7.78343506 39.4943712,7.78343506 C44.0921025,7.78343506 47.8327164,11.5665686 47.8327164,16.2165625 Z M61.3895633,43.407641 L45.8284049,43.407641 L45.8284049,85.6049768 C50.2553523,84.1300205 54.1270924,81.1121822 56.656868,77.1039238 C57.1628232,76.3017545 58.21631,76.0649852 59.0107427,76.5779854 C59.8038961,77.0903386 60.036725,78.1570943 59.5301303,78.9586166 C56.1272462,84.3499701 50.6423344,88.2068515 44.4806837,89.5407813 C44.3623503,89.5653639 44.2433773,89.5783021 44.1244043,89.5783021 C43.7374222,89.5783021 43.3587554,89.4443916 43.0523679,89.1940372 C42.652593,88.8667004 42.4197641,88.3744014 42.4197641,87.8542852 L42.4197641,41.6829772 C42.4197641,40.7313716 43.1828544,39.9596071 44.1244043,39.9596071 L61.3895633,39.9596071 C62.3311132,39.9596071 63.0942036,40.7313716 63.0942036,41.6829772 C63.0942036,42.6358766 62.3311132,43.407641 61.3895633,43.407641 Z M17.6107565,43.407641 C16.6692066,43.407641 15.9061163,42.6358766 15.9061163,41.6829772 C15.9061163,40.7313716 16.6692066,39.9596071 17.6107565,39.9596071 L34.8759155,39.9596071 C35.8174654,39.9596071 36.5805558,40.7313716 36.5805558,41.6829772 C36.5805558,41.7224387 36.5716008,41.7586657 36.5690422,41.7968334 L36.5690422,87.8529914 C36.5690422,88.3737545 36.3362133,88.8667004 35.9364384,89.1927434 C35.6300509,89.4430978 35.2513841,89.5770083 34.8650417,89.5770083 C34.7460686,89.5770083 34.626456,89.564717 34.5081226,89.5394875 C28.3483908,88.2062046 22.863479,84.3499701 19.4605949,78.9592635 C18.9540002,78.1570943 19.1868291,77.0903386 19.9799825,76.5779854 C20.7731359,76.0649852 21.8266228,76.3024014 22.3338572,77.1039238 C24.8636328,81.1115353 28.7347333,84.1287267 33.1604014,85.6030361 L33.1604014,43.407641 L17.6107565,43.407641 Z M17.6107565,37.0440455 C16.6692066,37.0440455 15.9061163,36.272281 15.9061163,35.3200285 C15.9061163,34.367776 16.6692066,33.5960116 17.6107565,33.5960116 L33.1604014,33.5960116 L33.1604014,31.1112277 C27.3115346,28.5649874 23.4609026,22.7279124 23.4609026,16.2167566 C23.4609026,7.27451044 30.6536528,0 39.4941153,0 C48.3358571,0 55.5292469,7.27451044 55.5292469,16.2167566 C55.5292469,22.7279124 51.678615,28.5649874 45.8284688,31.1112277 L45.8284688,33.5960116 L61.3896273,33.5960116 C62.3311772,33.5960116 63.0936279,34.367776 63.0936279,35.3200285 C63.0936279,36.272281 62.3311772,37.0440455 61.3896273,37.0440455 L44.1244682,37.0440455 C43.1829184,37.0440455 42.419828,36.272281 42.419828,35.3200285 L42.419828,28.698251 L43.5724591,28.2984602 C48.6851004,26.5285126 52.1206061,21.6728011 52.1206061,16.2167566 C52.1206061,9.17578089 46.4565952,3.44803385 39.4941153,3.44803385 C32.5329147,3.44803385 26.8695434,9.17578089 26.8695434,16.2167566 C26.8695434,21.6728011 30.3044095,26.5285126 35.4164112,28.2984602 L36.5690422,28.698251 L36.5690422,35.2061723 C36.5716008,35.24434 36.5805558,35.280567 36.5805558,35.3200285 C36.5805558,36.272281 35.8174654,37.0440455 34.8759155,37.0440455 L17.6107565,37.0440455 Z" id="Combined-Shape" fill="#112D68"></path>
            </g>
        </g>
    </g>
</svg>